<svg viewBox="0 0 1024 1024" version="1.1" xmlns="http://www.w3.org/2000/svg" width="40" height="40">
    <path
        d="M324.72213333 312.66133333a35.72586667 35.72586667 0 0 0-38.22933333 32.08533334 35.95413333 35.95413333 0 0 0 38.22933333 32.08533333 30.26453333 30.26453333 0 0 0 31.85706667-32.08533333 30.26453333 30.26453333 0 0 0-31.85706667-32.08533334z m177.72053334 64.39786667a30.26453333 30.26453333 0 0 0 32.31253333-32.08533333 30.03733333 30.03733333 0 0 0-31.85706667-32.08533334 35.72586667 35.72586667 0 0 0-38.22933333 32.08533334 35.72586667 35.72586667 0 0 0 37.77386667 32.08533333z"
        fill="#0e932e"></path>
    <path
        d="M512 11.37813333A500.62186667 500.62186667 0 1 0 1012.62186667 512 500.62186667 500.62186667 0 0 0 512 11.37813333z m-104.6752 629.87306667a424.1632 424.1632 0 0 1-88.97493333-12.97066667l-88.74666667 45.51146667 25.25866667-77.36853333c-63.488-45.51146667-101.71733333-103.08266667-101.71733334-173.6256 0-122.42453333 113.77813333-218.90773333 253.952-218.90773334 124.928 0 234.38293333 77.14133333 256.22826667 180.6784a216.8608 216.8608 0 0 0-24.3488-1.59253333 209.35146667 209.35146667 0 0 0-215.94986667 203.66186667 195.92533333 195.92533333 0 0 0 7.73653334 53.93066666c-7.73653333 0.22826667-15.47413333 0.68266667-23.43786667 0.68266667z m374.55573333 91.02293333l19.11466667 64.39786667-69.632-38.6848a316.53013333 316.53013333 0 0 1-76.2304 12.97066667c-120.832 0-216.17813333-83.73973333-216.17813333-186.8224S534.3008 397.312 655.1328 397.312c113.77706667 0 215.72266667 83.968 215.72266667 186.82346667 0 57.11573333-38.00213333 108.31573333-88.97493334 147.22773333z"
        fill="#0e932e"></path>
    <path
        d="M724.7648 499.4848a25.71413333 25.71413333 0 0 0 0 51.4272 29.12746667 29.12746667 0 0 0 31.85706667-25.71413333 29.35466667 29.35466667 0 0 0-31.85706667-25.71306667z m-139.71946667 0a25.71413333 25.71413333 0 0 0 0 51.4272 29.12746667 29.12746667 0 0 0 31.85813334-25.71413333 29.12746667 29.12746667 0 0 0-31.85813334-25.71306667z"
        fill="#0e932e"></path>
</svg>